<?xml version="1.0" encoding="utf-8"?>
<!-- Generator: Adobe Illustrator 25.1.0, SVG Export Plug-In . SVG Version: 6.00 Build 0)  -->
<svg version="1.1" id="Capa_1" xmlns="http://www.w3.org/2000/svg" xmlns:xlink="http://www.w3.org/1999/xlink" x="0px" y="0px"
	 viewBox="0 0 512 512" style="enable-background:new 0 0 512 512;" xml:space="preserve">
<style type="text/css">
	.st0{fill:#FFFFFF;}
	.st1{fill:none;stroke:#51CCC1;stroke-width:15;stroke-miterlimit:10;}
	.st2{display:none;fill:#52CCC2;}
	.st3{fill:#52CCC2;stroke:#51CCC1;stroke-width:10;stroke-miterlimit:10;}
	.st4{fill:#52CCC2;}
</style>
<path id="Hand" class="st0" d="M504.7,334.1c-8-13.6-21.6-23-36.9-25.7c-3.1-7.2-7.7-13.6-13.5-18.8c-14.1-12.6-34.1-16.8-52.1-10.9
	c-7.7,2.5-14.5,6.6-20.4,12.2L305.5,364c0.5-2.9,0.7-5.8,0.7-8.7c0-13.8-5.4-26.7-15.1-36.4c-9.7-9.7-22.7-15.1-36.4-15.1h-53.9
	c-12.3-21.3-34.6-34.3-59.4-34.3c-14.1,0-27.6,4.2-39.1,12.2c-3.4,2.4-4.2,7-1.9,10.4c2.4,3.4,7,4.2,10.4,1.9
	c9-6.2,19.5-9.5,30.5-9.5c20.6,0,39.1,11.5,48.2,30.1c1.3,2.6,3.9,4.2,6.7,4.2h58.4c9.8,0,18.9,3.8,25.8,10.7
	c6.9,6.9,10.7,16.1,10.7,25.8c0,11-4.9,21.2-13.3,28.2c-0.1,0.1-0.3,0.2-0.4,0.4c-5.4,5.1-12.4,7.9-19.9,7.9h-95.8
	c-4.1,0-7.5,3.4-7.5,7.5s3.4,7.5,7.5,7.5h95.8c10.2,0,19.9-3.5,27.7-9.9c2.4-0.2,9.8,0.6,11.9-0.7l144.6-69.7
	c5.3-2.5,10.9-3.8,16.7-3.8c13.6,0,26.4,7.3,33.2,19.1c5.4,9.3,6.7,20.2,3.6,30.5s-10.2,18.6-19.9,23.4L336,464
	c-19.9,9.8-42.2,14.9-64.4,14.9H87.8V338.1l0,0c0-8.6,2-16.7,5.8-24.3c1.9-3.7,0.4-8.2-3.3-10.1c-3.7-1.9-8.2-0.4-10.1,3.3
	c-3.7,7.3-6.1,15.4-7,23.6H7.5c-4.1,0-7.5,3.4-7.5,7.5v148.3c0,4.1,3.4,7.5,7.5,7.5h72.8l0,0h191.2c24.5,0,49-5.7,71-16.5L482.1,409
	c13.3-6.5,23.3-18.4,27.6-32.5C514,362.4,512.2,346.9,504.7,334.1L504.7,334.1z M435.4,312.9L325,366.1l67.2-64.4
	c4.2-4,9.2-7,14.7-8.8c13-4.2,27.3-1.2,37.5,7.9c2.5,2.2,4.6,4.7,6.4,7.4C445.4,309,440.3,310.6,435.4,312.9L435.4,312.9z
	 M72.8,478.9H15V345.6h57.8V478.9z"/>
<g id="Card">
	<path class="st1" d="M397.1,248.7H262.3c-5.5,0-10-4.5-10-10V26.5c0-5.5,4.5-10,10-10h134.8c5.5,0,10,4.5,10,10v212.2
		C407.1,244.2,402.6,248.7,397.1,248.7z"/>
	<path id="plus_bad" class="st2" d="M166.4,173.4c-6.5,0-9.8-3.3-9.8-9.8v-22.9h-22.9c-6.5,0-9.8-3.3-9.8-9.8V120
		c0-6.5,3.3-9.8,9.8-9.8h22.9V87.3c0-6.5,3.3-9.8,9.8-9.8h10.9c6.5,0,9.8,3.3,9.8,9.8v22.9H210c6.5,0,9.8,3.3,9.8,9.8v10.9
		c0,6.5-3.3,9.8-9.8,9.8h-22.9v22.9c0,6.5-3.3,9.8-9.8,9.8H166.4z"/>
	<g id="Plus">
		<path class="st3" d="M199.9,140.1h-90c-2.8,0-5-2.2-5-5v-5c0-2.8,2.2-5,5-5h90c2.8,0,5,2.2,5,5v5
			C204.9,137.8,202.7,140.1,199.9,140.1z"/>
		<path class="st3" d="M162.4,87.6v90c0,2.8-2.2,5-5,5h-5c-2.8,0-5-2.2-5-5v-90c0-2.8,2.2-5,5-5h5C160.2,82.6,162.4,84.8,162.4,87.6
			z"/>
	</g>
	<path id="one" class="st4" d="M323.7,106.9h-14.9c-7,0-9-4.3-4.8-9.9l20-26c2.5-3.3,5.7-4.8,9.9-4.8h15.5c5.4,0,8.1,2.7,8.1,8.1
		v116.5c0,5.4-2.7,8.1-8.1,8.1h-17.8c-5.4,0-8.1-2.7-8.1-8.1v-84H323.7z"/>
</g>
</svg>
