<svg id="Capa_1" enable-background="new 0 0 511.976 511.976" height="512" viewBox="0 0 511.976 511.976" width="512"
    xmlns="http://www.w3.org/2000/svg">
    <g>
        <path fill="white" d="m504.706 334.119c-7.953-13.649-21.587-22.979-36.888-25.698-3.077-7.164-7.685-13.615-13.546-18.832-14.139-12.599-34.11-16.782-52.117-10.916-7.659 2.495-14.517 6.608-20.387 12.227l-76.263 73.063c.489-2.86.745-5.78.745-8.736 0-13.753-5.358-26.685-15.083-36.41-9.719-9.731-22.652-15.09-36.417-15.09h-53.893c-12.259-21.251-34.61-34.26-59.407-34.26-14.061 0-27.574 4.222-39.078 12.209-3.402 2.362-4.246 7.036-1.883 10.438 2.362 3.403 7.037 4.247 10.438 1.883 8.98-6.235 19.535-9.531 30.523-9.531 20.623 0 39.083 11.519 48.176 30.062 1.26 2.569 3.872 4.198 6.734 4.198h58.39c9.754 0 18.918 3.796 25.807 10.693 6.896 6.896 10.693 16.061 10.693 25.807 0 10.954-4.856 21.232-13.325 28.198-.139.114-.273.233-.404.357-5.388 5.124-12.441 7.945-19.861 7.945h-95.82c-4.142 0-7.5 3.358-7.5 7.5s3.358 7.5 7.5 7.5h95.82c10.165 0 19.868-3.489 27.68-9.871 2.442-.182 9.773.56 11.919-.744l144.614-69.69c5.27-2.54 10.875-3.828 16.662-3.828 13.629 0 26.355 7.309 33.214 19.08 5.442 9.326 6.72 20.151 3.599 30.484-3.121 10.329-10.175 18.632-19.866 23.381l-139.526 68.412c-19.938 9.775-42.213 14.943-64.419 14.943h-183.716v-140.797c0-.004-.001-.008-.001-.012.002-8.554 1.957-16.727 5.812-24.292 1.881-3.69.414-8.207-3.277-10.087-3.691-1.881-8.207-.414-10.087 3.277-3.741 7.34-6.122 15.387-7.029 23.614h-65.739c-4.142 0-7.5 3.358-7.5 7.5v148.299c0 4.142 3.358 7.5 7.5 7.5h72.818.002 191.216c24.481 0 49.041-5.697 71.022-16.475l139.525-68.411c13.278-6.507 23.346-18.357 27.622-32.512 4.279-14.158 2.455-29.606-4.999-42.378zm-69.346-21.209-110.433 53.218 67.215-64.395c4.228-4.046 9.16-7.007 14.659-8.798 12.953-4.222 27.319-1.21 37.494 7.856 2.46 2.189 4.611 4.682 6.422 7.396-5.291.785-10.434 2.351-15.357 4.723zm-362.539 165.985h-57.821v-133.299h57.821z"/>
        <!-- 
        <path fill="#df2020" d="m161.688 194.867c-6.622-11.47-21.127-15.892-33.022-10.072l-25.844 12.647c-6.272 3.07-11.038 8.661-13.075 15.34s-1.203 13.978 2.288 20.025l3.295 5.708c3.492 6.047 9.396 10.419 16.199 11.995 1.874.434 3.778.647 5.677.647 4.996 0 9.946-1.477 14.144-4.301l23.876-16.058c10.989-7.391 14.41-22.165 7.788-33.634zm-14.834 23.484-23.876 16.058c-2.392 1.609-5.259 2.137-8.066 1.487-2.809-.65-5.15-2.384-6.592-4.881l-3.295-5.708c-1.441-2.497-1.772-5.391-.931-8.149s2.731-4.975 5.321-6.242l25.844-12.647c1.442-.706 2.979-1.042 4.497-1.042 3.577 0 7.05 1.864 8.942 5.141l1.326 2.297c2.694 4.666 1.302 10.678-3.17 13.686z"/>
        <path fill="#df2020" d="m69.28 156.402c4.685 4.375 10.902 6.805 17.279 6.805.57 0 1.142-.02 1.714-.059l28.706-1.969c13.212-.906 23.562-11.99 23.562-25.234v-2.652c0-13.244-10.35-24.328-23.562-25.234l-28.706-1.969c-6.963-.472-13.89 1.982-18.993 6.748s-8.031 11.503-8.031 18.486v6.59c0 6.984 2.927 13.722 8.031 18.488zm6.969-25.078c0-2.883 1.161-5.555 3.268-7.523 1.929-1.802 4.393-2.771 7.002-2.771.241 0 .484.008.728.025l28.706 1.969c5.377.369 9.589 4.879 9.589 10.269v2.652c0 5.39-4.212 9.9-9.589 10.269l-28.706 1.969c-2.874.198-5.621-.777-7.729-2.745s-3.269-4.64-3.269-7.524z"/>
        <path fill="#df2020" d="m102.821 71.797 25.844 12.647c3.545 1.734 7.32 2.559 11.051 2.559 8.789 0 17.323-4.58 21.972-12.631l1.326-2.297c6.622-11.469 3.201-26.243-7.789-33.634l-23.875-16.058c-5.795-3.897-13.019-5.231-19.822-3.653-6.803 1.575-12.707 5.947-16.198 11.995l-3.295 5.708c-3.491 6.047-4.325 13.347-2.288 20.025 2.036 6.679 6.802 12.27 13.074 15.339zm2.203-27.865 3.295-5.708c1.442-2.497 3.783-4.231 6.592-4.881.784-.182 1.573-.271 2.354-.271 2.018 0 3.987.598 5.712 1.758l23.875 16.059c4.472 3.007 5.864 9.02 3.169 13.687l-1.326 2.297c-2.695 4.667-8.599 6.469-13.438 4.099l-25.844-12.647c-2.59-1.267-4.48-3.484-5.321-6.242-.84-2.76-.509-5.654.932-8.151z"/>
        <path fill="#df2020" d="m467.767 197.442-25.844-12.647c-11.897-5.82-26.401-1.397-33.022 10.072l-1.326 2.297c-6.622 11.469-3.201 26.243 7.789 33.634l23.875 16.058c4.199 2.824 9.148 4.301 14.144 4.301 1.898 0 3.805-.213 5.677-.647 6.803-1.575 12.708-5.947 16.199-11.995l3.295-5.707c3.492-6.047 4.326-13.346 2.289-20.025s-6.804-12.271-13.076-15.341zm-2.204 27.866-3.295 5.707c-1.442 2.497-3.783 4.231-6.592 4.881s-5.673.122-8.066-1.487l-23.875-16.058c-4.472-3.008-5.864-9.02-3.169-13.688l1.326-2.297c2.695-4.667 8.599-6.469 13.438-4.099l25.844 12.647c2.59 1.267 4.48 3.484 5.321 6.242.84 2.76.51 5.654-.932 8.152z"/>
        <path fill="#df2020" d="m430.047 133.294v2.652c0 13.244 10.35 24.328 23.562 25.234l28.705 1.969c.573.039 1.144.059 1.714.059 6.376 0 12.594-2.431 17.279-6.805 5.104-4.766 8.031-11.504 8.031-18.487v-6.59c0-6.983-2.927-13.721-8.031-18.486-5.104-4.766-12.029-7.226-18.993-6.748l-28.706 1.969c-13.211.905-23.561 11.989-23.561 25.233zm53.294-12.239c.244-.017.486-.025.728-.025 2.609 0 5.073.97 7.002 2.771 2.107 1.968 3.268 4.64 3.268 7.523v6.59c0 2.884-1.161 5.556-3.269 7.524-2.107 1.967-4.846 2.944-7.729 2.745l-28.706-1.969c-5.377-.369-9.589-4.879-9.589-10.269v-2.652c0-5.39 4.212-9.9 9.589-10.269z"/>
        <path fill="#df2020" d="m408.9 74.373c4.648 8.052 13.182 12.632 21.971 12.631 3.73 0 7.507-.825 11.051-2.559l25.844-12.647c6.272-3.07 11.038-8.661 13.075-15.34s1.203-13.978-2.289-20.025l-3.295-5.708c-3.491-6.047-9.396-10.419-16.198-11.995-6.806-1.577-14.028-.244-19.822 3.653l-23.875 16.058c-10.99 7.391-14.411 22.165-7.789 33.634zm14.834-23.485 23.875-16.058c1.725-1.16 3.694-1.758 5.712-1.758.782 0 1.57.09 2.354.271 2.809.65 5.15 2.384 6.592 4.881l3.295 5.708c1.442 2.497 1.772 5.391.932 8.149-.841 2.758-2.731 4.975-5.321 6.242l-25.844 12.647c-4.842 2.368-10.744.568-13.438-4.099l-1.326-2.297c-2.695-4.666-1.303-10.678 3.169-13.686z"/> 
        -->
        <path fill="#df2020" d="m228.853 134.617-35.58 35.58c-9.795 9.809-9.795 25.77.005 35.584l22.865 22.854c4.749 4.756 11.067 7.375 17.792 7.375 6.724 0 13.043-2.619 17.788-7.372l35.577-35.577 35.573 35.573c4.749 4.756 11.067 7.375 17.792 7.375 6.724 0 13.042-2.619 17.787-7.37l22.875-22.865c9.795-9.809 9.795-25.77-.004-35.583l-35.576-35.576 35.58-35.571c9.795-9.809 9.795-25.769-.005-35.584l-22.865-22.854c-4.75-4.756-11.068-7.375-17.792-7.375s-13.042 2.619-17.787 7.371l-3.42 3.42c-2.929 2.929-2.93 7.678-.001 10.606 2.929 2.93 7.678 2.93 10.606.001l3.425-3.424c1.915-1.918 4.464-2.974 7.177-2.974s5.263 1.056 7.183 2.979l22.865 22.854c3.959 3.965 3.959 10.417.004 14.377l-40.88 40.87c-1.407 1.406-2.197 3.314-2.197 5.303s.79 3.897 2.197 5.304l40.876 40.876c3.959 3.965 3.959 10.417.005 14.376l-22.875 22.865c-1.916 1.918-4.465 2.974-7.178 2.974s-5.262-1.056-7.181-2.978l-40.88-40.88c-2.929-2.929-7.678-2.929-10.606 0l-40.884 40.884c-1.916 1.918-4.465 2.974-7.178 2.974s-5.262-1.056-7.182-2.979l-22.865-22.854c-3.959-3.965-3.959-10.417-.004-14.378l40.88-40.88c1.407-1.407 2.197-3.314 2.197-5.304s-.791-3.897-2.197-5.303l-40.875-40.866c-3.959-3.965-3.959-10.416-.005-14.376l22.875-22.865c1.915-1.918 4.464-2.974 7.177-2.974s5.263 1.056 7.183 2.979l40.88 40.87c2.929 2.929 7.677 2.928 10.606 0l16.25-16.25c2.929-2.929 2.929-7.678 0-10.606-2.929-2.929-7.678-2.929-10.606 0l-10.947 10.947-35.572-35.563c-4.75-4.756-11.068-7.375-17.792-7.375s-13.042 2.619-17.787 7.37l-22.875 22.865c-9.795 9.81-9.795 25.77.004 35.583z"/>
    </g>
</svg>