<?xml version="1.0" standalone="no"?>
<!DOCTYPE svg PUBLIC "-//W3C//DTD SVG 20010904//EN"
 "http://www.w3.org/TR/2001/REC-SVG-20010904/DTD/svg10.dtd">
<svg version="1.0"
    xmlns="http://www.w3.org/2000/svg" width="512.000000pt" height="512.000000pt" viewBox="0 0 512.000000 512.000000" preserveAspectRatio="xMidYMid meet">

    <g transform="translate(0.000000,512.000000) scale(0.100000,-0.100000)" stroke="none" fill="red">
        <path d="M0 2560 l0 -2560 523 1 c460 1 513 2 450 14 -365 66 -656 334 -755
697 l-23 83 0 1765 0 1765 23 83 c99 363 389 631 755 697 63 12 10 13 -450 14
l-523 1 0 -2560z"/>
        <path d="M2560 5102 c99 -49 107 -188 13 -249 -25 -17 -76 -18 -788 -23 l-760
-5 -80 -27 c-230 -78 -403 -267 -450 -493 -22 -105 -22 -3385 0 -3490 39 -187
179 -367 350 -450 145 -72 109 -69 937 -75 735 -5 747 -5 775 -26 88 -64 77
-200 -19 -247 -31 -15 63 -17 1275 -17 l1307 0 0 2560 0 2560 -1297 0 c-1242
0 -1297 -1 -1263 -18z m1353 -1478 c38 -19 982 -956 1003 -996 18 -34 18 -89
0 -131 -18 -41 -972 -993 -1009 -1007 -68 -25 -138 0 -178 62 -15 26 -19 45
-16 86 l4 54 359 359 359 359 -1500 0 -1501 0 -44 23 c-103 52 -106 177 -7
251 l28 21 1507 3 1506 2 -346 348 c-191 191 -352 360 -357 375 -28 75 1 155
69 189 43 22 82 23 123 2z"/>
    </g>
</svg>
